<svg xmlns="http://www.w3.org/2000/svg" xmlns:xlink="http://www.w3.org/1999/xlink" width="58" height="30" version="1.1" viewBox="0 0 58 30"><title>Blik logo</title><desc>Created with Sketch.</desc><defs><path id="path-1" d="M4.81760131,0 C2.15699346,0 0,2.12049689 0,4.73608696 L0,4.73608696 L0,25.263913 C0,27.8795031 2.15699346,30 4.81760131,30 L4.81760131,30 L53.1823987,30 C55.8430065,30 58,27.8795031 58,25.263913 L58,25.263913 L58,4.73608696 C58,2.12049689 55.8430065,0 53.1823987,0 L53.1823987,0 L4.81760131,0 Z"/><linearGradient id="linearGradient-3" x1="50%" x2="50%" y1="100%" y2="0%"><stop offset="0%" stop-color="#4D4D4F"/><stop offset="100%" stop-color="#000"/></linearGradient><radialGradient id="radialGradient-4" cx="20.371%" cy="18.087%" r="117.64%" fx="20.371%" fy="18.087%" gradientTransform="translate(0.203706,0.180871),scale(0.983106,1.000000),rotate(54.479781),translate(-0.203706,-0.180871)"><stop offset="0%" stop-color="red"/><stop offset="55.904%" stop-color="#E83E49"/><stop offset="100%" stop-color="#F0F"/></radialGradient><path id="path-5" d="M3.67238562,6.95664596 C5.60913072,6.95664596 7.17892157,5.41322981 7.17892157,3.50925466 C7.17892157,1.60546584 5.60913072,0.0620496894 3.67238562,0.0620496894 C1.73564052,0.0620496894 0.165849673,1.60546584 0.165849673,3.50925466 C0.165849673,5.41322981 1.73564052,6.95664596 3.67238562,6.95664596 Z"/></defs><g id="Page-1" fill="none" fill-rule="evenodd" stroke="none" stroke-width="1"><g id="SPB_&amp;_AltPay_NewAssets" transform="translate(-100.000000, -159.000000)"><g id="Blik-logo" transform="translate(100.000000, 159.000000)"><g id="Group-3"><mask id="mask-2" fill="#fff"><use xlink:href="#path-1"/></mask><path id="Fill-1" fill="url(#linearGradient-3)" d="M4.81760131,0 C2.15699346,0 0,2.12049689 0,4.73608696 L0,4.73608696 L0,25.263913 C0,27.8795031 2.15699346,30 4.81760131,30 L4.81760131,30 L53.1823987,30 C55.8430065,30 58,27.8795031 58,25.263913 L58,25.263913 L58,4.73608696 C58,2.12049689 55.8430065,0 53.1823987,0 L53.1823987,0 L4.81760131,0 Z" mask="url(#mask-2)"/></g><g id="Group-9" fill="#FFF" transform="translate(6.254902, 4.472050)"><polygon id="Fill-4" points="17.627 21.677 21.56 21.677 21.56 .015 17.627 .015"/><polygon id="Fill-6" points="24.925 21.677 28.858 21.677 28.858 7.329 24.925 7.329"/><polygon id="Fill-7" points="46.485 21.677 40.575 14.084 46.011 7.329 41.368 7.329 36.155 13.882 36.155 .016 32.222 .016 32.222 21.677 36.155 21.677 36.155 14.311 41.368 21.677"/><path id="Fill-8" d="M7.60539216,17.9735963 C5.65575817,17.9735963 4.0751634,16.4197453 4.0751634,14.5030994 C4.0751634,12.5864534 5.65575817,11.0326025 7.60539216,11.0326025 C9.55502614,11.0326025 11.1356209,12.5864534 11.1356209,14.5030994 C11.1356209,16.4197453 9.55502614,17.9735963 7.60539216,17.9735963 M7.60539216,7.16614286 C6.3282549,7.16614286 5.12636601,7.4821677 4.0751634,8.03800621 L4.0751634,0.0155217391 L0.142156863,0.0155217391 L0.142156863,14.5030994 C0.142156863,18.5551491 3.48360131,21.8400559 7.60539216,21.8400559 C11.727183,21.8400559 15.0686275,18.5551491 15.0686275,14.5030994 C15.0686275,10.4510497 11.727183,7.16614286 7.60539216,7.16614286"/></g><g id="Group-12" transform="translate(14.026144, 3.354037)"><mask id="mask-6" fill="#fff"><use xlink:href="#path-5"/></mask><use id="Clip-11" fill="url(#radialGradient-4)" xlink:href="#path-5"/><path id="Fill-10" d="M3.67238562,6.95664596 C5.60913072,6.95664596 7.17892157,5.41322981 7.17892157,3.50925466 C7.17892157,1.60546584 5.60913072,0.0620496894 3.67238562,0.0620496894 C1.73564052,0.0620496894 0.165849673,1.60546584 0.165849673,3.50925466 C0.165849673,5.41322981 1.73564052,6.95664596 3.67238562,6.95664596 Z" mask="url(#mask-6)"/></g></g></g></g></svg>